<svg version="1.1" id="Layer_1" xmlns="http://www.w3.org/2000/svg" xmlns:xlink="http://www.w3.org/1999/xlink" x="0px" y="0px"
	 width="100%" viewBox="0 0 300 300" enable-background="new 0 0 300 300" xml:space="preserve">
<path fill="#000000" opacity="1.000000" stroke="none" 
	d="
M172.000000,301.000000 
	C114.666679,301.000000 57.833355,301.000000 1.000023,301.000000 
	C1.000015,201.000031 1.000015,101.000053 1.000008,1.000063 
	C100.999947,1.000042 200.999893,1.000042 300.999878,1.000021 
	C300.999939,100.999939 300.999939,200.999878 300.999969,300.999908 
	C258.166656,301.000000 215.333328,301.000000 172.000000,301.000000 
M120.851395,251.976578 
	C122.569260,251.927811 124.287117,251.879028 126.916077,251.975082 
	C130.611832,251.927643 134.307602,251.880219 138.926849,251.977539 
	C143.951782,251.930267 148.976715,251.883011 154.909149,251.978012 
	C158.278015,251.927948 161.646896,251.877884 165.941162,251.970856 
	C172.631439,251.923462 179.321716,251.876053 186.932922,251.973007 
	C189.766174,251.980881 192.671646,251.583527 195.419067,252.073090 
	C203.471466,253.507919 211.548462,243.892822 211.149796,236.501480 
	C210.621262,226.702682 211.106461,216.849197 212.063095,207.002228 
	C216.042923,206.945923 220.022766,206.889603 224.925629,206.972351 
	C229.617783,206.927948 234.309921,206.883530 239.904617,206.977890 
	C245.305908,206.001205 250.707199,205.024521 256.804321,203.992722 
	C263.121429,199.818024 266.222321,194.440765 266.153625,186.374893 
	C265.817810,146.939529 265.902130,107.499283 266.081146,68.061867 
	C266.119293,59.660500 261.829010,54.740749 254.166046,50.992321 
	C249.445084,50.717079 244.724106,50.441841 239.080673,50.019840 
	C234.388382,50.068642 229.696106,50.117439 224.076279,50.019348 
	C216.719940,50.069557 209.363586,50.119762 201.094894,50.022999 
	C197.397110,50.069588 193.699310,50.116180 189.073944,50.017879 
	C180.384583,50.067280 171.695236,50.116680 162.078552,50.020645 
	C156.053558,50.069126 150.028564,50.117607 143.080276,50.024349 
	C138.387878,50.071995 133.695465,50.119644 128.075165,50.025307 
	C121.384613,50.071705 114.694061,50.118103 107.075523,50.020844 
	C98.051430,50.069210 89.027328,50.117577 79.076797,50.026524 
	C73.719147,50.073441 68.361488,50.120358 62.083225,50.029427 
	C57.057281,50.408997 52.031338,50.788570 46.327106,51.243301 
	C39.710735,55.270115 35.868427,60.602131 35.911102,68.895241 
	C36.115105,108.536598 36.110588,148.180115 35.916241,187.821564 
	C35.874786,196.277420 40.125313,201.240112 47.716446,205.203964 
	C52.478279,205.748398 57.240108,206.292816 62.929218,206.970367 
	C68.620590,206.925385 74.311966,206.880402 80.905403,206.968445 
	C84.229324,206.996399 87.553246,207.024353 90.984970,207.981949 
	C90.990059,216.902100 91.190285,225.827744 90.939453,234.740692 
	C90.733109,242.073120 93.248047,247.569641 100.788933,250.996384 
	C102.859406,251.275986 104.929878,251.555573 107.867081,251.977768 
	C109.911942,251.929642 111.956810,251.881516 114.850288,251.977066 
	C116.567848,251.928543 118.285400,251.880020 120.851395,251.976578 
z"/>
<path fill="#4F0FE4" opacity="1.000000" stroke="none" 
	d="
M63.003838,50.167271 
	C68.361488,50.120358 73.719147,50.073441 79.539185,50.546410 
	C80.000938,64.456947 79.892372,77.848656 80.022652,91.238037 
	C80.276871,117.364883 80.816353,143.489746 80.930946,169.616791 
	C80.985352,182.021393 80.334633,194.429108 80.003342,206.835419 
	C74.311966,206.880402 68.620590,206.925385 62.494370,206.493988 
	C62.373104,203.054855 62.935162,200.093964 62.957451,197.129028 
	C63.056305,183.978271 62.900024,170.825424 63.021915,157.675049 
	C63.250977,132.962173 63.740440,108.251076 63.852558,83.538010 
	C63.903011,72.415947 63.306690,61.290943 63.003838,50.167271 
z"/>
<path fill="#7D49F7" opacity="1.000000" stroke="none" 
	d="
M224.002594,206.833313 
	C220.022766,206.889603 216.042923,206.945923 211.534149,206.776886 
	C211.005219,206.551544 210.884506,206.074371 210.915619,205.600143 
	C210.960159,174.986160 211.017578,144.846313 210.957733,114.706703 
	C210.941711,106.635681 208.170273,100.046356 200.156540,96.560349 
	C200.800949,91.812653 201.501053,87.413849 201.679367,82.993996 
	C201.812180,79.702095 201.010223,76.377457 201.080231,73.077065 
	C201.242279,65.438248 201.680832,57.805302 202.007248,50.169971 
	C209.363586,50.119762 216.719940,50.069557 224.539062,50.550812 
	C225.001022,98.704445 225.025711,146.326645 224.956070,193.948730 
	C224.949799,198.244049 224.334869,202.538467 224.002594,206.833313 
z"/>
<path fill="#5516E6" opacity="1.000000" stroke="none" 
	d="
M80.454376,206.901917 
	C80.334633,194.429108 80.985352,182.021393 80.930946,169.616791 
	C80.816353,143.489746 80.276871,117.364883 80.022652,91.238037 
	C79.892372,77.848656 80.000938,64.456947 80.002396,50.616119 
	C89.027328,50.117577 98.051430,50.069210 107.538162,50.550686 
	C107.656288,66.027107 107.311760,80.973686 106.580399,95.938477 
	C104.467316,96.325562 102.741074,96.694427 100.698936,97.184021 
	C94.505798,100.444763 91.031090,105.173302 91.030243,111.994720 
	C91.026375,143.359024 91.076134,174.723343 91.058800,206.331085 
	C91.010948,206.574509 90.877167,207.052307 90.877167,207.052307 
	C87.553246,207.024353 84.229324,206.996399 80.454376,206.901917 
z"/>
<path fill="#4B0AE2" opacity="1.000000" stroke="none" 
	d="
M62.543533,50.098351 
	C63.306690,61.290943 63.903011,72.415947 63.852558,83.538010 
	C63.740440,108.251076 63.250977,132.962173 63.021915,157.675049 
	C62.900024,170.825424 63.056305,183.978271 62.957451,197.129028 
	C62.935162,200.093964 62.373104,203.054855 62.030731,206.427429 
	C57.240108,206.292816 52.478279,205.748398 47.446712,204.619263 
	C47.451599,201.736252 47.996773,199.433167 47.956440,197.140381 
	C47.714771,183.402130 47.089287,169.666519 47.074451,155.929489 
	C47.058319,140.995193 47.776390,126.060478 47.786362,111.125694 
	C47.795418,97.559586 47.241669,83.993813 47.019417,70.426529 
	C46.914284,64.008713 47.003975,57.587704 47.005394,51.168144 
	C52.031338,50.788570 57.057281,50.408997 62.543533,50.098351 
z"/>
<path fill="#8350FA" opacity="1.000000" stroke="none" 
	d="
M224.464111,206.902832 
	C224.334869,202.538467 224.949799,198.244049 224.956070,193.948730 
	C225.025711,146.326645 225.001022,98.704445 225.002823,50.624260 
	C229.696106,50.117439 234.388382,50.068642 239.541138,50.550377 
	C240.001068,61.011024 239.904297,70.942329 240.027512,80.870895 
	C240.146500,90.458763 240.730972,100.044830 240.690140,109.629898 
	C240.597443,131.390106 240.225082,153.149033 240.013245,174.908920 
	C239.951965,181.202805 240.187576,187.501770 240.027222,193.791779 
	C239.916183,198.146774 239.359573,202.490417 239.002075,206.839127 
	C234.309921,206.883530 229.617783,206.927948 224.464111,206.902832 
z"/>
<path fill="#8756FC" opacity="1.000000" stroke="none" 
	d="
M239.453339,206.908508 
	C239.359573,202.490417 239.916183,198.146774 240.027222,193.791779 
	C240.187576,187.501770 239.951965,181.202805 240.013245,174.908920 
	C240.225082,153.149033 240.597443,131.390106 240.690140,109.629898 
	C240.730972,100.044830 240.146500,90.458763 240.027512,80.870895 
	C239.904297,70.942329 240.001068,61.011024 240.002380,50.623756 
	C244.724106,50.441841 249.445084,50.717079 254.583710,51.537170 
	C255.000916,100.498726 254.985687,148.915451 255.047028,197.332092 
	C255.049866,199.571121 255.738983,201.809280 256.108490,204.047836 
	C250.707199,205.024521 245.305908,206.001205 239.453339,206.908508 
z"/>
<path fill="#4604E0" opacity="1.000000" stroke="none" 
	d="
M46.666252,51.205723 
	C47.003975,57.587704 46.914284,64.008713 47.019417,70.426529 
	C47.241669,83.993813 47.795418,97.559586 47.786362,111.125694 
	C47.776390,126.060478 47.058319,140.995193 47.074451,155.929489 
	C47.089287,169.666519 47.714771,183.402130 47.956440,197.140381 
	C47.996773,199.433167 47.451599,201.736252 47.091908,204.432602 
	C40.125313,201.240112 35.874786,196.277420 35.916241,187.821564 
	C36.110588,148.180115 36.115105,108.536598 35.911102,68.895241 
	C35.868427,60.602131 39.710735,55.270115 46.666252,51.205723 
z"/>
<path fill="#8C5CFE" opacity="1.000000" stroke="none" 
	d="
M256.456421,204.020279 
	C255.738983,201.809280 255.049866,199.571121 255.047028,197.332092 
	C254.985687,148.915451 255.000916,100.498726 255.002136,51.623955 
	C261.829010,54.740749 266.119293,59.660500 266.081146,68.061867 
	C265.902130,107.499283 265.817810,146.939529 266.153625,186.374893 
	C266.222321,194.440765 263.121429,199.818024 256.456421,204.020279 
z"/>
<path fill="#7039F2" opacity="1.000000" stroke="none" 
	d="
M163.005875,50.166077 
	C171.695236,50.116680 180.384583,50.067280 189.536804,50.542702 
	C190.011200,65.991493 190.022705,80.915459 189.588318,95.880264 
	C186.764633,95.978973 184.386826,96.036858 181.581177,96.061264 
	C179.439484,96.049210 177.725647,96.070618 175.558060,96.065086 
	C172.075287,96.059319 169.046249,96.080490 165.637329,96.069603 
	C164.496460,95.991051 163.735474,95.944557 162.980667,95.435837 
	C162.993195,80.037766 162.999527,65.101921 163.005875,50.166077 
z"/>
<path fill="#C1A7FE" opacity="1.000000" stroke="none" 
	d="
M210.884506,206.074371 
	C210.884506,206.074371 211.005219,206.551544 211.080627,206.785370 
	C211.106461,216.849197 210.621262,226.702682 211.149796,236.501480 
	C211.548462,243.892822 203.471466,253.507919 195.419067,252.073090 
	C192.671646,251.583527 189.766174,251.980881 186.470764,251.443024 
	C186.007492,240.427567 185.906937,229.940704 186.052170,219.457260 
	C186.113907,215.000748 186.690414,210.551361 187.402344,206.074158 
	C188.512024,206.018753 189.252350,205.987900 190.442749,205.978760 
	C193.591171,205.980728 196.289505,205.960983 199.447983,205.959000 
	C203.566925,206.009293 207.225708,206.041824 210.884506,206.074371 
z"/>
<path fill="#5F23EB" opacity="1.000000" stroke="none" 
	d="
M106.967239,95.920265 
	C107.311760,80.973686 107.656288,66.027107 108.002159,50.622513 
	C114.694061,50.118103 121.384613,50.071705 128.538406,50.554153 
	C128.996857,66.031082 128.992065,80.979172 128.743317,95.967026 
	C128.499374,96.006798 128.009521,96.073273 127.580772,96.047806 
	C125.435158,96.038948 123.718285,96.055565 121.552048,96.053131 
	C118.408005,96.048264 115.713333,96.062447 112.587440,96.058357 
	C110.426567,96.000137 108.696899,95.960205 106.967239,95.920265 
z"/>
<path fill="#B89BFE" opacity="1.000000" stroke="none" 
	d="
M187.032990,206.098740 
	C186.690414,210.551361 186.113907,215.000748 186.052170,219.457260 
	C185.906937,229.940704 186.007492,240.427567 186.010284,251.370850 
	C179.321716,251.876053 172.631439,251.923462 165.558731,251.515503 
	C165.369186,245.032227 166.121048,238.957825 165.624664,232.987183 
	C164.870056,223.910141 164.677658,214.973419 167.486847,206.087616 
	C170.618210,206.023392 173.304260,205.982498 176.419022,205.964569 
	C178.562378,205.971725 180.276993,205.955917 182.411072,205.956543 
	C184.231354,206.014908 185.632172,206.056824 187.032990,206.098740 
z"/>
<path fill="#682FEF" opacity="1.000000" stroke="none" 
	d="
M162.542206,50.093361 
	C162.999527,65.101921 162.993195,80.037766 162.546692,95.461990 
	C160.074432,95.997009 158.042343,96.043655 155.581879,96.059784 
	C153.438065,96.051018 151.722580,96.072777 149.568207,96.065781 
	C147.074295,95.997017 145.019287,95.956993 142.974213,95.493942 
	C143.323959,80.102638 143.663773,65.134369 144.003571,50.166092 
	C150.028564,50.117607 156.053558,50.069126 162.542206,50.093361 
z"/>
<path fill="#A780FE" opacity="1.000000" stroke="none" 
	d="
M154.001648,251.835754 
	C148.976715,251.883011 143.951782,251.930267 138.464340,251.466980 
	C138.288971,243.524384 138.540024,236.090759 138.873337,228.660812 
	C139.211273,221.127884 139.630463,213.598618 140.385651,206.047363 
	C141.501175,206.000717 142.245163,205.974457 143.426910,205.964111 
	C145.907547,205.965149 147.950394,205.950241 150.422974,205.949524 
	C152.574677,205.992676 154.296661,206.021637 155.929596,206.423859 
	C155.226181,209.494568 154.122986,212.184494 154.081253,214.890778 
	C153.891373,227.203247 154.000244,239.520325 154.001648,251.835754 
z"/>
<path fill="#642AED" opacity="1.000000" stroke="none" 
	d="
M143.541931,50.095222 
	C143.663773,65.134369 143.323959,80.102638 142.992813,95.537033 
	C143.001480,96.003151 143.039337,96.087433 142.599060,96.056755 
	C140.109177,96.043465 138.059570,96.060852 135.571686,96.057587 
	C133.084702,96.000381 131.035980,95.963814 128.987274,95.927254 
	C128.992065,80.979172 128.996857,66.031082 129.002350,50.625145 
	C133.695465,50.119644 138.387878,50.071995 143.541931,50.095222 
z"/>
<path fill="#A27AFE" opacity="1.000000" stroke="none" 
	d="
M140.014084,206.067749 
	C139.630463,213.598618 139.211273,221.127884 138.873337,228.660812 
	C138.540024,236.090759 138.288971,243.524384 138.002594,251.394592 
	C134.307602,251.880219 130.611832,251.927643 126.459717,251.460205 
	C126.228996,243.247223 126.965202,235.520340 126.533936,227.859207 
	C126.118652,220.482147 125.840561,213.253326 128.425232,206.079224 
	C131.243790,206.013489 133.616959,205.975998 136.392319,205.958923 
	C137.867706,206.008804 138.940903,206.038269 140.014084,206.067749 
z"/>
<path fill="#AE8CFE" opacity="1.000000" stroke="none" 
	d="
M154.455399,251.906891 
	C154.000244,239.520325 153.891373,227.203247 154.081253,214.890778 
	C154.122986,212.184494 155.226181,209.494568 156.173035,206.398560 
	C156.505539,206.000000 156.992172,205.945099 157.442078,205.962540 
	C160.589264,205.962509 163.286575,205.945053 166.249298,205.967636 
	C166.690308,206.042099 166.865906,206.076523 167.041519,206.110962 
	C164.677658,214.973419 164.870056,223.910141 165.624664,232.987183 
	C166.121048,238.957825 165.369186,245.032227 165.096039,251.444000 
	C161.646896,251.877884 158.278015,251.927948 154.455399,251.906891 
z"/>
<path fill="#7741F5" opacity="1.000000" stroke="none" 
	d="
M190.034210,95.839432 
	C190.022705,80.915459 190.011200,65.991493 190.000610,50.615143 
	C193.699310,50.116180 197.397110,50.069588 201.551071,50.096485 
	C201.680832,57.805302 201.242279,65.438248 201.080231,73.077065 
	C201.010223,76.377457 201.812180,79.702095 201.679367,82.993996 
	C201.501053,87.413849 200.800949,91.812653 199.910797,96.587761 
	C199.496765,96.955032 199.002518,96.969650 198.685974,96.723495 
	C195.567566,96.361664 192.765701,96.245987 189.982117,96.057747 
	C190.000366,95.985184 190.034210,95.839432 190.034210,95.839432 
z"/>
<path fill="#8F5EFE" opacity="1.000000" stroke="none" 
	d="
M90.931068,207.517120 
	C90.877167,207.052307 91.010948,206.574509 91.502449,206.307526 
	C95.000252,205.998688 98.006561,205.956833 101.005630,205.954041 
	C100.998398,205.993118 100.985008,206.071442 100.906372,206.477112 
	C100.551338,209.160049 100.050423,211.435883 100.035965,213.714813 
	C99.957504,226.088333 99.999146,238.462601 99.999435,250.836624 
	C93.248047,247.569641 90.733109,242.073120 90.939453,234.740692 
	C91.190285,225.827744 90.990059,216.902100 90.931068,207.517120 
z"/>
<path fill="#9263FE" opacity="1.000000" stroke="none" 
	d="
M100.394180,250.916504 
	C99.999146,238.462601 99.957504,226.088333 100.035965,213.714813 
	C100.050423,211.435883 100.551338,209.160049 101.352203,206.456757 
	C104.254898,206.037689 106.633125,206.044647 108.924232,206.425079 
	C108.224350,209.496353 107.124252,212.186646 107.082436,214.893280 
	C106.892197,227.204727 106.999840,239.520782 107.000351,251.835175 
	C104.929878,251.555573 102.859406,251.275986 100.394180,250.916504 
z"/>
<path fill="#9769FE" opacity="1.000000" stroke="none" 
	d="
M107.433716,251.906464 
	C106.999840,239.520782 106.892197,227.204727 107.082436,214.893280 
	C107.124252,212.186646 108.224350,209.496353 109.320953,206.407684 
	C110.864098,205.989883 111.923401,205.962936 113.321159,205.961761 
	C114.111137,206.017838 114.562668,206.048172 114.983360,206.493958 
	C114.635017,209.844177 114.068794,212.776810 114.043503,215.714081 
	C113.939873,227.753067 114.001114,239.793488 114.001671,251.833374 
	C111.956810,251.881516 109.911942,251.929642 107.433716,251.906464 
z"/>
<path fill="#9E74FE" opacity="1.000000" stroke="none" 
	d="
M127.979836,206.107468 
	C125.840561,213.253326 126.118652,220.482147 126.533936,227.859207 
	C126.965202,235.520340 126.228996,243.247223 126.004166,251.387787 
	C124.287117,251.879028 122.569260,251.927811 120.426598,251.446106 
	C120.001404,239.478775 119.846428,228.038620 120.092911,216.607086 
	C120.168831,213.085983 121.340691,209.588516 122.438515,206.057831 
	C124.583397,206.001297 126.300491,205.967163 128.007156,205.976410 
	C127.996719,206.019821 127.979836,206.107468 127.979836,206.107468 
z"/>
<path fill="#9B6FFE" opacity="1.000000" stroke="none" 
	d="
M122.010727,206.080215 
	C121.340691,209.588516 120.168831,213.085983 120.092911,216.607086 
	C119.846428,228.038620 120.001404,239.478775 120.002380,251.373566 
	C118.285400,251.880020 116.567848,251.928543 114.425980,251.905212 
	C114.001114,239.793488 113.939873,227.753067 114.043503,215.714081 
	C114.068794,212.776810 114.635017,209.844177 115.409561,206.473053 
	C117.575462,206.004791 119.284325,205.972870 121.247696,205.975327 
	C121.671707,206.033218 121.841217,206.056717 122.010727,206.080215 
z"/>
<path fill="#A780FE" opacity="1.000000" stroke="none" 
	d="
M199.002518,96.969650 
	C199.002518,96.969650 199.496765,96.955032 199.742493,96.927620 
	C208.170273,100.046356 210.941711,106.635681 210.957733,114.706703 
	C211.017578,144.846313 210.960159,174.986160 210.915619,205.600143 
	C207.225708,206.041824 203.566925,206.009293 199.451752,205.496643 
	C198.997772,169.000900 199.000137,132.985275 199.002518,96.969650 
z"/>
<path fill="#793FFE" opacity="1.000000" stroke="none" 
	d="
M112.982712,205.935974 
	C111.923401,205.962936 110.864098,205.989883 109.408066,206.034225 
	C106.633125,206.044647 104.254898,206.037689 101.430840,206.051086 
	C100.985008,206.071442 100.998398,205.993118 101.001129,205.494843 
	C101.007515,169.018814 101.011169,133.041061 101.014824,97.063293 
	C102.741074,96.694427 104.467316,96.325562 106.580399,95.938477 
	C108.696899,95.960205 110.426567,96.000137 112.581566,96.506973 
	C112.671432,106.926437 112.233879,116.877205 112.058281,126.832603 
	C112.000244,130.122681 112.906990,133.427567 112.874115,136.720703 
	C112.759308,148.220505 112.223511,159.718338 112.233513,171.216568 
	C112.243584,182.789917 112.714005,194.362854 112.982712,205.935974 
z"/>
<path fill="#7236FE" opacity="1.000000" stroke="none" 
	d="
M100.698936,97.184021 
	C101.011169,133.041061 101.007515,169.018814 101.008362,205.455780 
	C98.006561,205.956833 95.000252,205.998688 91.550301,206.064087 
	C91.076134,174.723343 91.026375,143.359024 91.030243,111.994720 
	C91.031090,105.173302 94.505798,100.444763 100.698936,97.184021 
z"/>
<path fill="#9769FE" opacity="1.000000" stroke="none" 
	d="
M167.486847,206.087616 
	C166.865906,206.076523 166.690308,206.042099 166.254120,205.506790 
	C166.001434,168.704498 166.009323,132.403076 166.017212,96.101662 
	C169.046249,96.080490 172.075287,96.059319 175.554169,96.524414 
	C175.999451,133.320999 175.994873,169.631317 175.990295,205.941620 
	C173.304260,205.982498 170.618210,206.023392 167.486847,206.087616 
z"/>
<path fill="#9263FE" opacity="1.000000" stroke="none" 
	d="
M165.637329,96.069603 
	C166.009323,132.403076 166.001434,168.704498 165.988708,205.466751 
	C163.286575,205.945053 160.589264,205.962509 157.443512,205.560669 
	C156.722000,197.897049 156.280731,190.653946 156.227905,183.408035 
	C156.183807,177.357025 156.805176,171.300995 156.756226,165.250229 
	C156.676483,155.391281 156.164276,145.536102 156.064789,135.677002 
	C155.931610,122.482605 156.018097,109.285973 156.010239,96.090302 
	C158.042343,96.043655 160.074432,95.997009 162.540497,95.924210 
	C163.735474,95.944557 164.496460,95.991051 165.637329,96.069603 
z"/>
<path fill="#9E74FE" opacity="1.000000" stroke="none" 
	d="
M187.402344,206.074158 
	C185.632172,206.056824 184.231354,206.014908 182.413666,205.494324 
	C182.000854,168.708679 182.004944,132.401703 182.009033,96.094734 
	C184.386826,96.036858 186.764633,95.978973 189.588318,95.880264 
	C190.034210,95.839432 190.000366,95.985184 189.993088,96.483879 
	C189.988098,133.307404 189.990387,169.632233 189.992676,205.957062 
	C189.252350,205.987900 188.512024,206.018753 187.402344,206.074158 
z"/>
<path fill="#9B6FFE" opacity="1.000000" stroke="none" 
	d="
M181.581177,96.061264 
	C182.004944,132.401703 182.000854,168.708679 181.994202,205.477875 
	C180.276993,205.955917 178.562378,205.971725 176.419022,205.964569 
	C175.994873,169.631317 175.999451,133.320999 176.007904,96.551361 
	C177.725647,96.070618 179.439484,96.049210 181.581177,96.061264 
z"/>
<path fill="#A27AFE" opacity="1.000000" stroke="none" 
	d="
M190.442749,205.978775 
	C189.990387,169.632233 189.988098,133.307404 189.974823,96.556442 
	C192.765701,96.245987 195.567566,96.361664 198.685974,96.723495 
	C199.000137,132.985275 198.997772,169.000900 198.991608,205.478882 
	C196.289505,205.960983 193.591171,205.980728 190.442749,205.978775 
z"/>
<path fill="#7E47FE" opacity="1.000000" stroke="none" 
	d="
M113.321152,205.961746 
	C112.714005,194.362854 112.243584,182.789917 112.233513,171.216568 
	C112.223511,159.718338 112.759308,148.220505 112.874115,136.720703 
	C112.906990,133.427567 112.000244,130.122681 112.058281,126.832603 
	C112.233879,116.877205 112.671432,106.926437 113.012779,96.525253 
	C115.713333,96.062447 118.408005,96.048264 121.469963,96.455246 
	C121.558495,98.837296 121.043816,100.797417 121.037582,102.759155 
	C120.976936,121.867775 120.991302,140.976685 121.007309,160.085480 
	C121.012413,166.169357 121.125839,172.253235 121.119408,178.337021 
	C121.109680,187.538376 121.038345,196.739639 120.993195,205.940948 
	C119.284325,205.972870 117.575462,206.004791 115.440399,206.057587 
	C114.562668,206.048172 114.111137,206.017838 113.321152,205.961746 
z"/>
<path fill="#8550FE" opacity="1.000000" stroke="none" 
	d="
M135.990112,205.938522 
	C133.616959,205.975998 131.243790,206.013489 128.425232,206.079224 
	C127.979836,206.107468 127.996719,206.019821 128.001556,205.515167 
	C128.007446,168.698090 128.008484,132.385681 128.009521,96.073273 
	C128.009521,96.073273 128.499374,96.006798 128.743317,95.967026 
	C131.035980,95.963814 133.084702,96.000381 135.568649,96.518036 
	C135.999298,133.312256 135.994705,169.625381 135.990112,205.938522 
z"/>
<path fill="#814BFE" opacity="1.000000" stroke="none" 
	d="
M127.580772,96.047806 
	C128.008484,132.385681 128.007446,168.698090 128.011993,205.471756 
	C126.300491,205.967163 124.583397,206.001297 122.438507,206.057831 
	C121.841217,206.056717 121.671707,206.033218 121.247696,205.975327 
	C121.038345,196.739639 121.109680,187.538376 121.119408,178.337021 
	C121.125839,172.253235 121.012413,166.169357 121.007309,160.085480 
	C120.991302,140.976685 120.976936,121.867775 121.037582,102.759155 
	C121.043816,100.797417 121.558495,98.837296 121.919327,96.474304 
	C123.718285,96.055565 125.435158,96.038948 127.580772,96.047806 
z"/>
<path fill="#8F5EFE" opacity="1.000000" stroke="none" 
	d="
M155.581879,96.059784 
	C156.018097,109.285973 155.931610,122.482605 156.064789,135.677002 
	C156.164276,145.536102 156.676483,155.391281 156.756226,165.250229 
	C156.805176,171.300995 156.183807,177.357025 156.227905,183.408035 
	C156.280731,190.653946 156.722000,197.897049 156.993607,205.543228 
	C156.992172,205.945099 156.505539,206.000000 156.262100,206.025299 
	C154.296661,206.021637 152.574677,205.992676 150.418091,205.532608 
	C149.667709,201.980347 149.045013,198.854828 149.089249,195.738770 
	C149.280518,182.264175 149.895020,168.792633 149.912033,155.319412 
	C149.926361,143.984131 149.111313,132.648819 149.072647,121.312126 
	C149.043976,112.907425 149.671753,104.500481 150.007111,96.094536 
	C151.722580,96.072777 153.438065,96.051018 155.581879,96.059784 
z"/>
<path fill="#8C5CFE" opacity="1.000000" stroke="none" 
	d="
M149.568222,96.065781 
	C149.671753,104.500481 149.043976,112.907425 149.072647,121.312126 
	C149.111313,132.648819 149.926361,143.984131 149.912033,155.319412 
	C149.895020,168.792633 149.280518,182.264175 149.089249,195.738770 
	C149.045013,198.854828 149.667709,201.980347 149.988388,205.518417 
	C147.950394,205.950241 145.907547,205.965149 143.430420,205.501053 
	C143.010559,168.710510 143.024933,132.398972 143.039337,96.087433 
	C143.039337,96.087433 143.001480,96.003151 142.982880,95.960068 
	C145.019287,95.956993 147.074295,95.997017 149.568222,96.065781 
z"/>
<path fill="#8756FC" opacity="1.000000" stroke="none" 
	d="
M142.599060,96.056755 
	C143.024933,132.398972 143.010559,168.710510 142.992645,205.485107 
	C142.245163,205.974457 141.501175,206.000717 140.385651,206.047363 
	C138.940903,206.038269 137.867706,206.008804 136.392319,205.958923 
	C135.994705,169.625381 135.999298,133.312256 136.006927,96.538681 
	C138.059570,96.060852 140.109177,96.043465 142.599060,96.056755 
z"/>
</svg>